<svg data-name="イヤー 2" xmlns="http://www.w3.org/2000/svg" width="120" height="197"><path d="M120 131.02H98.6c-9.3-22.3-22.33-36.24-38.14-36.24s-28.84 13.94-38.14 36.24c-10.23-15.8-14.88-30.67-15.81-42.75C4.65 52.97 24.19 20.44 54.88 6.5c3.72-1.86 9.3-2.79 14.88-3.72h1.86s.93-.93.93-1.86c0 0 0-.93-1.86-.93h-1.86c-5.58.93-11.16 2.79-14.88 4.65C21.4 18.58 1.86 52.04 4.65 89.21c0 13.01 6.51 27.88 15.81 42.75H.93s-.93 0-.93.93 0 .93.93.93h21.4c-6.51 17.66-10.23 38.1-10.23 60.4v1.86s0 .93.93.93.93 0 .93-.93v-1.86c0-21.37 3.72-41.82 9.3-57.61 13.95 21.37 35.35 42.75 61.4 60.4h.93v-1.86c-27.91-19.51-48.37-40.89-61.4-61.33h72.55c6.51 16.73 10.23 38.1 10.23 60.4v1.86s0 .93.93.93.93 0 .93-.93v-1.86c0-23.23-3.72-43.67-10.23-60.4h20.47s.93 0 .93-.93 0-.93-.93-.93l.93-.93ZM60.47 97.57c13.95 0 26.05 13.01 35.35 33.45H26.05c8.37-20.44 21.4-33.45 35.35-33.45h-.93Z" style="fill:#ddab90"/></svg>