<svg xmlns="http://www.w3.org/2000/svg" width="485.96" height="498.2"><path d="M201.48 28.67c.78-3.59-6.44-4.99-6.64-5.01-.45-.04-3.5.03-4.88.18-.92.1-5.03.53-5.89.86-.15.06-6.24 1.7-11.6 3.3-.47.14-11.66 4.85-13.02 5.38s-19.63 8.56-20.86 9.38c-21.85 12.62-50.46 32.35-66.11 61.64-8.64 16.17-16.43 39.28-18.38 48-1.48 6.63-3.48 28.56-3.94 36.98 0 8.64.17 37.32 1.89 47.27 1.21 6.97 7.5 28.61 8.09 30.81 1.16 4.37 3.35 5.43 5.02 9.64.88 2.21 3.96 18.44 4.54 19.69-.34 1.1-.78 2.9-1.2 4.56-.46 1.82-1.25 3.53-2.31 5.08-.65.95-7.46 9.6-10.77 11.91-1.82 1.27-10.26 7.34-15.2 8.62-4.37 1.13-9.59 2.24-15.08 2.77-2.52.24-5.07.13-7.56-.3-2.67-.47-11.36-1.43-14.26-2.04-2-.42-3.72-1.28-2.54 1.31 1.18 2.61 7.15 6.37 9.62 7.29 7.6 2.81 12.34 3.26 19.89 4.52 1.75.29 15.29 0 19.93-.56 3.84-.46 8.13-1.61 8.26-1.63-2.14 4.42-3.99 10.4-5.39 14.99-6.57 21.46 5.92 48.81 21.94 63.37 11.14 10.13 60.23 33.29 68.77 37.66 7.22 3.69 22.54 6.13 22.45.76-.36-21.82-.58-48.27.01-70.09-1.57-2.92-14.91-8.54-16.66-9.31-3.43-1.52-23.58-10.38-25-11.1-1.22-1.56-11.28-19.81-13.78-28.21-.64-2.16-2.81-9.3-4.07-14.28.62-9.28 4.48-32.89 5.99-40.56.89-4.53 4.6-24.63 4.62-24.74 1.98-13.03 2.46-15.12 8.18-31.8 4.33-12.63 15.5-27.71 27.37-37.45 3.03-2.49 22.46-11.02 24.48-11.63 7.55-2.28 12.79-3.48 12.05-5.77-3.64-11.21-3.43-23.44-3.59-35.07-.17-11.94.19-23.91 1.51-35.79 2.62-23.76 9.06-47.27 14.12-70.62Zm-67.62 377.41c-.09-.14-.19-.28-.28-.33.13-.02.21.13.28.33Zm-5.11-2.42c0 .05-.02.11-.03.16-.03-.03-.04-.06-.07-.08.04-.03.07-.05.1-.08Zm-28.98-96.7s.1.06.14.1c-.12-.02-.18-.05-.14-.1Zm80.7-247.59c-.09.39-.17.75-.25 1.15-.05-.45.07-.81.25-1.15Zm-1.74 8.22c-.01.06-.03.13-.04.19-.02-.06-.05-.11-.07-.17.04 0 .08-.01.11-.02Zm-2.29-22.13c.22.18.33.36.3.57-.1-.19-.21-.37-.3-.57Z" style="fill:#eceef5"/><path d="M224.43 288.94c-.1 1.59 1.25 2.94 2.84 2.84a2.695 2.695 0 0 0 2.54-2.84l-2.69-47.61-2.69 47.61ZM220.01 287.89a2.686 2.686 0 0 0-3.8 0 2.686 2.686 0 0 0 0 3.8l.74.74c.52.52 1.21.79 1.9.79s1.38-.26 1.9-.79a2.686 2.686 0 0 0 0-3.8l-.74-.74ZM237.64 287.9a2.686 2.686 0 0 0-3.8 0l-.74.74a2.686 2.686 0 0 0 0 3.8c.52.53 1.21.79 1.9.79s1.38-.26 1.9-.79l.74-.74a2.686 2.686 0 0 0 0-3.8Z" style="fill:#231815"/><path d="M188.77 319.54c19.07 6.41 37.04 10.96 56.68 5.94 6.31-1.4 12.68-3.41 19.61-5.94-15.88 27.98-60.19 27.62-76.3 0Z" style="fill:#ddaa90"/><path d="M226.91 401.25H213.6c-2.5 0-4.97-.51-7.27-1.5l-80.65-34.83c-12.28-6.86-20.78-48.35-26.06-77.66" style="fill:none;stroke:#0e3161;stroke-linecap:round;stroke-miterlimit:10;stroke-width:3.23px"/><path d="m225.92 401.23 9.78-.16c1.81-.03 3.59-.43 5.24-1.17l81.03-36.57c11.12-6.45 17.87-36.87 22.62-64.49" style="fill:none;stroke:#0e3161;stroke-linecap:round;stroke-miterlimit:10;stroke-width:3.23px"/><path d="M205.97 168.57a1.6 1.6 0 0 1-1.27-.62c-.27-.35-27.04-35.2-1.62-83.68.41-.8 1.4-1.1 2.18-.68.79.41 1.09 1.39.68 2.18-24.41 46.56 1.04 79.85 1.3 80.18a1.62 1.62 0 0 1-1.27 2.62ZM158.94 185.06c-.43 0-.86-.17-1.18-.52-.44-.47-43.32-47.87 2.57-104.12.56-.69 1.59-.8 2.27-.23.69.56.79 1.58.23 2.27-44.09 54.03-4.42 98.04-2.71 99.88.61.65.57 1.68-.09 2.28-.31.29-.7.43-1.1.43ZM125.27 270.94c-.42 0-.84-.16-1.16-.49-8.87-9.1-12-23.88-14.07-38.5-3.64-25.8-1.56-54.74 6.36-88.46.2-.87 1.06-1.4 1.94-1.2.87.2 1.41 1.07 1.2 1.94-7.83 33.33-9.89 61.88-6.3 87.27 1.99 14.08 4.97 28.27 13.19 36.7.62.64.61 1.66-.03 2.28-.31.31-.72.46-1.13.46ZM111.13 304.42c-.45 0-.9-.19-1.22-.55-33.81-38.78-32.31-89.53-30.86-138.61.14-4.8.28-9.57.39-14.29.02-.89.91-1.59 1.65-1.58.89.02 1.6.76 1.58 1.65-.1 4.73-.25 9.5-.39 14.31-1.44 48.46-2.92 98.57 30.07 136.39.59.67.52 1.69-.16 2.28-.31.27-.68.4-1.06.4Z" style="fill:#0e3161"/><path d="M100.8 354.22c-.45 0-.98-.11-1.59-.42-12.48-6.16-59.44-92.45-37.32-170.79.24-.86 1.14-1.37 1.99-1.12.86.24 1.36 1.13 1.12 1.99-17.34 61.39 7.82 125.84 25.42 154.25 5.72 9.24 9.12 12.23 10.2 12.76a1.63 1.63 0 0 1 1.84.07c.71.53.86 1.55.32 2.26-.21.29-.85.99-1.97.99Zm.05-3.23Z" style="fill:#0e3161"/><path d="M61.95 272.67c-.17 0-.34-.02-.48-.07-4.65-1.64-15.25-39.45-13.67-81.66 2.22-59.68 27.19-136.88 133.54-165.77.87-.24 1.75.28 1.98 1.14.23.86-.27 1.75-1.14 1.98C96.49 51.57 66.4 107.97 56.26 151.19c-13.88 59.16 2.51 112.68 6.24 118.13a1.612 1.612 0 0 1 1.2 2.58c-.33.44-1.11.76-1.76.76Zm.84-2.99ZM20.77 330.84c-11.11 0-19.41-2.4-19.62-2.47a1.616 1.616 0 0 1-1.08-2.01c.26-.86 1.16-1.33 2.01-1.08 1.98.6 48.67 14.03 66.58-27.67a1.616 1.616 0 0 1 2.97 1.27c-11.41 26.58-34.26 31.96-50.85 31.96ZM70.14 414.91c-.41 0-.83-.16-1.14-.47-.32-.32-31.35-32.07-12.93-75.46.35-.82 1.31-1.2 2.12-.86.82.35 1.21 1.3.85 2.12-17.55 41.34 11.95 71.61 12.25 71.91a1.611 1.611 0 0 1-1.14 2.75ZM144.92 457.8c-.55 0-1.08-.28-1.38-.78-1.18-1.96-28.86-48.21-21.07-76.09.24-.85 1.13-1.36 1.99-1.12.86.24 1.36 1.13 1.12 1.99-7.42 26.55 20.44 73.08 20.72 73.55a1.615 1.615 0 0 1-1.39 2.45ZM165.75 459.38c-.89 0-1.62-.72-1.62-1.62v-74.82c0-.89.72-1.62 1.62-1.62s1.62.72 1.62 1.62v74.82c0 .89-.72 1.62-1.62 1.62Z" style="fill:#0e3161"/><path d="M405.48 431c-.42 0-.84-.15-1.13-.46-.61-.65-.68-1.57-.04-2.18 14.12-13.22 26.26-28.45 36.29-45.48l1.34-2.31c.44-.78 1.43-1.04 2.21-.6.77.44 1.04 1.43.6 2.21l-1.36 2.34c-10.18 17.3-22.52 32.78-36.66 46.01-.34.31-.8.48-1.25.48Z" style="fill:#ddaa90"/><path d="m329.13 8.67-.1 5.73-1.1-.02.1-5.39c-.94.27-1.86.54-2.64.76l-.29-1.12c.81-.21 1.83-.46 2.95-.78l.06-3.51-1.45-.03c-.2.88-.44 1.68-.74 2.32-.2-.15-.64-.44-.9-.54.63-1.33.97-3.31 1.2-5.23l1.03.19c-.09.71-.22 1.43-.34 2.12l1.22.02.06-3.2 1.09.02-.06 3.19 1.62.03-.02 1.13-1.62-.03-.06 3.21 1.86-.53.14 1.04-2.02.6Zm10.51-5.85s0 .46-.03.6c-.48 7.13-.87 9.57-1.52 10.34-.31.4-.63.54-1.11.58-.43.06-1.11.02-1.81-.04 0-.34-.12-.83-.31-1.16.71.08 1.35.11 1.66.11.26 0 .42-.06.6-.26.52-.55.92-2.87 1.35-9.1h-.77c-.87 4.1-2.7 8.26-5.37 10.29-.21-.25-.62-.55-.97-.72 2.64-1.81 4.43-5.66 5.33-9.6l-1.3-.02c-.76 2.68-2.28 5.6-4.04 7.07-.21-.24-.6-.52-.93-.7 1.71-1.27 3.17-3.88 3.95-6.39L333 3.8c-.55 1.14-1.17 2.17-1.87 2.96-.18-.19-.66-.53-.89-.7 1.33-1.38 2.32-3.63 2.89-6l1.08.24c-.21.83-.46 1.63-.74 2.4l6.18.11ZM367.55 4.56c-.69 1-1.51 1.99-2.37 2.9l-2.49 10.29-1.15-.28 2.07-8.52c-.65.55-1.32 1.05-1.98 1.45-.05-.29-.23-1-.39-1.29 1.89-1.1 3.86-3.04 5.3-5.17l1.01.61Zm3.73 4.32-.53 2.19 4.41 1.06-.26 1.06-4.41-1.06-.56 2.31 4.62 1.11-.26 1.07-4.63-1.11-.9 3.71-1.16-.28 2.52-10.34-1.07-.26c-.96 1.07-1.99 1.99-2.97 2.66-.14-.24-.5-.73-.71-.98 1.73-1.09 3.52-2.99 4.82-5.05l1.03.55c-.41.65-.88 1.27-1.35 1.87l6.44 1.55-.27 1.09-4.77-1.15ZM399.62 21.56c1.38-1.03 3.82-1.85 5.55-.8 1.82 1.1 2.02 3.69.3 6.51-2.26 3.74-5.63 3.94-9.37 2.48l-.06-1.36c3.22 1.37 6.25 1.59 8.31-1.8 1.29-2.13 1.49-4.11.06-4.98-1.71-1.04-4.77.45-6 2.11-.39.49-.65.95-.98 1.67l-1.09-.56c.24-.55.61-1.36 1.15-2.23.77-1.28 2.24-3.1 3.05-4.09.3-.37.57-.75.82-1.1l1.17.77c-.88.81-2.26 2.46-2.91 3.35ZM430.14 41.74c-1.27.77-3.66 2.33-4.94 3.53-.56.53-1.01 1.01-1.5 1.61.71-.29 1.65-.66 2.31-.9l.08.83c-1.09.46-2.7 1.18-3.34 1.58-.2.13-.46.29-.57.43-.12.13-.27.29-.37.41l-.84-.78c.6-.99 1.73-2.43 3.27-3.88 1.69-1.58 4.01-3.03 5.09-3.79.3-.2.63-.44.89-.68l.88 1.12c-.26.12-.72.37-.96.51Zm-3.3 8.17c-.52.5-.67 1.35.81 2.93.98 1.05 1.92 1.85 3 2.6l-.94.93c-.83-.6-1.84-1.48-2.97-2.68-1.82-1.95-2-3.42-.93-4.43.39-.37.86-.67 1.54-1.07l.71.91c-.53.28-.91.52-1.22.81Zm9.95-.88-.94.87c-1.3-1.11-3.41-3.36-4.47-4.77l.92-.86c.98 1.46 3.23 3.76 4.49 4.76ZM455.77 74.97c-.18.1-.5.26-.85.46.77 1.21 1.6 2.39 2.51 3.52l-1.02.55c-.74-1.02-1.61-2.26-2.44-3.53-.61.34-1.26.7-1.76.99-.06.03-.11.06-.17.09.82 1.3 1.66 2.48 2.57 3.63l-1.04.57c-.91-1.2-1.71-2.35-2.5-3.63-.7.43-1.41.88-2.06 1.29.56 2.1.36 4.07.16 5.22l-1.34-.08c.28-1.23.47-2.85.17-4.5-.34.21-.62.38-.84.5-.94.54-2.28.45-3.31-1.33-1.14-1.98-1.05-3.45.28-4.19 1.25-.71 2.79 0 3.92 1.99.23.4.42.8.58 1.21.61-.36 1.26-.76 1.84-1.11-.16-.26-.3-.52-.45-.78a41.97 41.97 0 0 1-1.78-3.55l1.02-.59c.4 1.08 1.21 2.7 1.73 3.61.14.25.28.5.42.74.06-.04.14-.08.2-.11.55-.31 1.16-.65 1.72-.97l-.35-.61c-.55-.96-1.38-2.73-1.78-3.65l1.01-.59c.35.99 1.18 2.77 1.71 3.69.12.21.24.41.36.63.36-.2.69-.39.98-.55.23-.13.61-.38.79-.52l.67 1.17c-.27.1-.56.22-.96.44Zm-11.03 3.08c.45.78 1.09 1.32 2.04.78.24-.13.56-.33.92-.53-.15-.48-.37-.96-.63-1.41-.74-1.31-1.66-1.74-2.3-1.38-.62.35-.8 1.17-.02 2.54ZM468.29 105.02c-1.69.51-5.26 1.62-7.48 2.38-1.64.57-1.86 1.81-1.38 3.24.94 2.75 3.02 3.79 4.93 4.32l-.72 1.21c-1.77-.55-4.32-1.84-5.45-5.13-.74-2.17-.37-3.98 2.06-4.82 2.21-.76 6.05-1.91 7.6-2.44.55-.19 1.07-.42 1.47-.66l.5 1.52c-.51.1-1.05.23-1.55.39Zm-.11 6.46-.71-.75c.65-.66 1.41-1.51 1.93-2.25l.65.73c-.4.56-1.28 1.65-1.87 2.26Zm1.49 1.71-.72-.73c.64-.66 1.38-1.54 1.86-2.27l.67.71c-.38.58-1.25 1.69-1.81 2.29ZM479.17 145.05c-.35-.02-.72-.03-1.11-.06.07 2.58-1.49 4.65-4.15 5.13-3.08.58-5.38-1.31-6.49-4.57l.95-.94c.91 3.21 2.96 4.7 5.34 4.26 2.01-.38 3.28-1.92 3.24-4-2.08-.23-4.26-.65-5.7-1.3-.34.39-.65.78-.9 1.16l-.99-.83c.23-.3.48-.61.75-.9-1.35-.75-2.3-1.56-2.53-2.73-.22-1.19.56-2.36 2.37-2.69 1.78-.33 3.84.3 5.25 1.51.45-.26.9-.5 1.34-.73.45-.23.93-.5 1.29-.77l.67 1.22c-.42.16-.91.38-1.32.57-.34.16-.73.38-1.14.6a8.064 8.064 0 0 1 1.87 3.81c.4.02.8.05 1.18.04.31 0 .83-.06 1.19-.12l.14 1.37c-.41-.05-.95-.04-1.27-.05Zm-10.34-4.86c.15.76 1.08 1.45 2.13 1.96.17-.16.35-.3.52-.47.61-.58 1.61-1.28 2.7-1.95-1.16-.85-2.7-1.25-3.91-1.02-1.02.18-1.56.77-1.43 1.48Zm3.32 2.48c1.23.48 2.97.84 4.66 1.04-.3-1.21-.89-2.25-1.71-3.16-1 .59-1.94 1.24-2.49 1.72-.15.13-.3.27-.45.4ZM482.93 174.07c-1.48-.18-4.34-.44-6.1-.29-.77.06-1.43.17-2.2.32.73.21 1.71.51 2.37.72l-.45.71c-1.15-.32-2.87-.75-3.62-.83-.24-.03-.54-.06-.72-.03-.17.04-.39.06-.54.09l-.17-1.13c1.09-.4 2.88-.82 5.01-.99 2.32-.19 5.06.11 6.38.19.37.03.78.05 1.13.02v1.41c-.28-.06-.8-.16-1.09-.2Zm-7.72 4.33c-.72.06-1.38.64-1.2 2.78.12 1.42.34 2.62.73 3.88l-1.32.14c-.28-.97-.52-2.28-.66-3.91-.21-2.64.57-3.9 2.05-4.02.53-.05 1.09 0 1.88.11l-.02 1.15c-.6-.11-1.05-.16-1.47-.12Zm8.38 5.45-1.27.1c-.33-1.67-.58-4.72-.53-6.47l1.26-.1c-.14 1.74.18 4.91.55 6.47ZM476.27 200.34l.91 1.02c-.91 1.16-2.33 2.6-3.47 3.59l-.93-1.07c1.24-1.03 2.58-2.4 3.48-3.54ZM484.32 224.12c-1.78-.13-5.49-.34-7.85-.4-1.73-.05-2.37 1.03-2.41 2.54-.08 2.92 1.49 4.59 3.11 5.78l-1.1.87c-1.47-1.14-3.39-3.24-3.3-6.74.06-2.29 1.05-3.84 3.62-3.77 2.33.06 6.31.33 7.97.38.58.02 1.15 0 1.6-.08l-.06 1.6c-.52-.09-1.07-.16-1.59-.18ZM477.15 264.67c-.59-.04-1.61-.06-2.59-.13-.61 1.31-1.49 2.35-2.26 3.11l-1.01-.78c.66-.62 1.45-1.41 2.04-2.39-.26 0-.48-.02-.66-.04-1.27-.12-2.22-1.02-2.04-2.97.16-1.73.99-3.08 2.56-2.94 1.45.13 2.24 1.59 2.07 3.36-.05.54-.15 1.05-.29 1.53 1.29.06 2.86.12 3.98.19l-.11 1.23c-.64-.09-1.13-.14-1.7-.17Zm-5.36-3.25c-.12 1.31.53 1.82 1.4 1.9.2.02.44.04.71.05.21-.5.34-1.04.39-1.6.11-1.15-.36-1.99-1.08-2.05-.74-.06-1.3.49-1.41 1.71Zm9.88-.69c.06.83.17 1.7.36 2.53l-1.18-.08c-.17-.85-.28-1.86-.32-2.92-2.15-.98-4.76-2.63-6.34-4.04l.74-1.16c1.41 1.45 3.81 3.02 5.58 3.91.02-.48.05-.94.08-1.4.06-.59.13-1.25.22-1.84l1.18.03c-.13.58-.22 1.26-.28 1.92-.05.57-.07 1.16-.08 1.79.86.31 1.83.62 2.69.73l-.26 1.38c-.55-.19-1.49-.5-2.38-.83Zm-1.03 3.81.9.73c-.61 1.09-1.8 2.8-2.43 3.48l-.97-.81c.8-.79 1.93-2.39 2.5-3.41ZM478.19 293.83c-.56.2-1.24.4-1.94.61.51 2.03 1.01 4.27.74 5.89-.36 2.15-1.81 3.27-3.51 3-1.8-.3-2.96-1.68-2.56-4.12.15-.87.5-1.71.83-2.26l1.21.25c-.37.56-.73 1.3-.87 2.14-.28 1.7.54 2.57 1.67 2.76.92.15 1.88-.45 2.14-1.98.23-1.37-.19-3.41-.73-5.36-.48.13-.94.27-1.39.39-2.08.53-5.14 1.04-6.95 1.28l-.14-1.4c1.92-.17 4.56-.51 6.75-1.06.49-.13.95-.25 1.39-.38-.38-1.3-.76-2.48-.97-3.25l1.38-.39c.04.47.15 1.05.21 1.35.11.57.28 1.26.49 1.99.74-.21 1.38-.41 1.86-.61.35-.16.89-.39 1.24-.59l.3 1.37c-.27.07-.83.26-1.14.38Zm1.4 2.41.5 1c-.48.45-1.66 1.48-2.37 1.97l-.56-1.01c.7-.51 1.82-1.37 2.43-1.96ZM470.69 331.59c-.41-.22-1.26-.63-2.04-1.05-.16.72-.3 1.38-.41 1.74-.4 1.36-1.26 2.3-3.28 1.69-1.79-.55-4.11-1.52-5.16-2.54-.86-.79-.9-1.61-.6-2.59.17-.58.5-1.27.77-1.72l1.3.18a7.83 7.83 0 0 0-.86 1.77c-.17.57-.18 1.05.37 1.56.88.8 2.76 1.63 4.38 2.13 1.38.42 1.83-.15 2.13-1.11.11-.36.25-.98.39-1.67-1.99-1.22-5.08-3.29-7.14-5.66l.86-1.1c1.59 2.17 4.68 4.36 6.54 5.49.17-.83.29-1.59.37-2l.24-1.42 1.34.28c-.17.46-.28.86-.4 1.35-.14.5-.33 1.42-.53 2.36 1.01.58 2.14 1.08 3.16 1.39l-.58 1.37c-.26-.14-.57-.3-.83-.45Zm-8.56 6.33-.2-1.35c1.69.03 4.68-.35 6.26-1.05l.17 1.26c-1.5.57-4.67 1.05-6.22 1.14ZM449.87 362.6c-.66-.3-1.51-.12-2.43 1.83-.61 1.28-1.01 2.45-1.3 3.72l-1.21-.52c.25-.98.69-2.25 1.38-3.72 1.14-2.4 2.44-3.11 3.79-2.49.49.23.95.54 1.58 1.03l-.59.98c-.46-.39-.83-.64-1.21-.83Zm8.86.02c-1.19-.88-3.55-2.5-5.15-3.24-.7-.32-1.32-.56-2.06-.8.53.54 1.23 1.28 1.7 1.8l-.73.39c-.84-.83-2.13-2.05-2.73-2.48-.2-.15-.45-.31-.61-.38-.17-.06-.38-.13-.52-.18l.41-1.06c1.16.18 2.92.7 4.85 1.59 2.11.96 4.34 2.57 5.44 3.28.3.21.66.42.97.57l-.72 1.23c-.21-.18-.61-.53-.83-.71Zm-4.3 8.83-1.16-.54c.55-1.6 1.85-4.39 2.77-5.89l1.15.53c-.99 1.44-2.29 4.36-2.75 5.89ZM389.64 450.67c-.14-.31-.33-.69-.54-1.09-1.59 1.26-3.03 2.56-4.13 3.82l-.69-.95c1.19-1.2 2.78-2.62 4.29-3.84-.29-.54-.63-1.12-.98-1.69-.58.73-1.28 1.41-1.94 1.89-.17.12-.32.23-.49.33.02.05.04.1.06.16.07.25.25.62.39.85l-1.2.48c-.06-.24-.18-.67-.27-.92 0-.02 0-.04-.03-.06-1.92.74-3.71.24-4.72-1.17-1.32-1.86-1.23-4.35 1.42-6.98l1.17.46c-2.16 1.93-2.75 4.17-1.56 5.85.7.98 1.97 1.38 3.42.86-.57-2.36-.54-4.55-.1-6.26-.38-.3-.72-.58-1.05-.83l.72-.95c.24.17.48.37.72.58.4-.94.97-1.78 1.69-2.29.85-.61 1.9-.57 2.68.52 1.18 1.67.94 4.39-.26 6.51.43.66.83 1.35 1.21 2 .26-.21.51-.4.77-.59.56-.4 1.6-1.07 2.15-1.42l.72.95c-.5.25-1.69.97-2.25 1.37-.29.22-.58.42-.87.65.23.4.43.76.61 1.06.16.24.29.5.41.64l-1.1.75c-.06-.21-.17-.49-.26-.69Zm-4.93-7.41c-.28 1.44-.33 3.05.16 4.89.06-.05.14-.1.22-.17.83-.61 1.45-1.34 1.89-1.98a16.53 16.53 0 0 0-2.27-2.74Zm1.63-3.23c-.5.37-.97 1.04-1.29 1.97.83.79 1.7 1.73 2.38 2.7.06.07.11.16.17.23.75-1.61.8-3.58.05-4.63-.38-.53-.82-.62-1.3-.28ZM352.53 465.72c-.27-.51-.77-1.41-1.23-2.27-1.45.17-2.79-.04-3.83-.3l.15-1.27c.88.24 1.96.5 3.11.5-.12-.22-.22-.41-.3-.59-.55-1.14-.27-2.41 1.51-3.28 1.58-.77 3.17-.77 3.86.63.63 1.31-.22 2.74-1.83 3.54-.49.24-.98.42-1.48.54.62 1.14 1.38 2.5 1.89 3.5l-1.12.54c-.25-.6-.47-1.04-.72-1.54Zm1.91 2.92-.17 1.15c-1.26.06-3.34-.06-4.25-.25l.19-1.25c1.08.27 3.06.39 4.23.35Zm-1.86-9.19c-1.19.59-1.29 1.41-.91 2.19.08.18.19.39.32.62.52-.08 1.06-.26 1.58-.5 1.05-.51 1.53-1.35 1.21-2-.32-.67-1.08-.85-2.2-.31Zm5.68 8.07c-.7.48-1.38 1.03-2 1.62l-.54-1.05c.65-.59 1.47-1.21 2.35-1.81-.27-2.34-.18-5.42.22-7.51l1.38.02c-.52 1.96-.64 4.83-.5 6.81.41-.24.83-.47 1.26-.67.52-.26 1.14-.54 1.7-.78l.59 1.03c-.57.19-1.2.47-1.8.76-.51.25-1.05.55-1.59.86.17.9.4 1.89.74 2.68l-1.31.5c-.12-.58-.34-1.54-.5-2.48ZM320.63 474.15c-.22-.71-.83-1.27-3.01-.6-.99.3-2 .73-2.87 1.22l-.33-1.24c.78-.38 1.75-.77 2.86-1.12 2.4-.75 3.93-.43 4.4 1.05.18.59.25 1.18.33 1.85l-1.17.25c-.02-.54-.09-1.03-.21-1.42Zm-1.05 5.98c-.9.28-1.82.51-2.68.68l-.32-1.15c.81-.14 1.72-.35 2.6-.61.95-.3 1.87-.63 2.78-1.04l.35 1.12c-.78.32-1.76.7-2.73 1Zm5.5 1.85c-.05-.33-.09-.75-.13-1.18-.94.43-1.89.92-2.74 1.45l-.38-1.19c.92-.53 1.97-1.04 3-1.49a38.5 38.5 0 0 1-.15-2.16c-.13-2.31-.06-5.73.2-7.63l1.48.04c-.42 1.83-.54 5.23-.43 7.52.02.54.06 1.16.11 1.73.49-.18.95-.35 1.38-.48.67-.21 1.22-.35 1.78-.5l.41 1.16c-.76.14-1.31.29-1.85.46-.5.16-1.05.36-1.62.59.06.56.14 1.06.18 1.38.07.44.22.95.35 1.26l-1.49.34c0-.37-.07-.97-.1-1.29ZM287.67 482.54c-.13-.72-.76-1.31-2.89-.94-1.4.25-2.59.58-3.8 1.07l-.27-1.29c.95-.36 2.24-.72 3.85-1.01 2.62-.45 3.94.21 4.2 1.66.09.53.09 1.09.06 1.88l-1.14.08c.06-.6.06-1.05-.02-1.46Zm-4.68 8.78-.22-1.26c1.64-.48 4.67-1 6.42-1.12l.22 1.24c-1.75.02-4.9.63-6.42 1.14Zm9.71-1.55c.05-1.48.04-4.33-.27-6.06-.13-.76-.29-1.4-.52-2.14-.14.74-.35 1.73-.5 2.41l-.74-.38c.21-1.17.49-2.91.5-3.66 0-.25 0-.55-.05-.72s-.09-.39-.14-.53l1.11-.28c.5 1.05 1.08 2.78 1.45 4.87.4 2.27.36 5.01.39 6.33 0 .37.02.78.08 1.12l-1.41.12c.03-.28.08-.8.1-1.09ZM251.47 487.09c-1.24-1.6-3.33-2.48-6.1-2.68.23-.26.5-.75.63-1.06 3.11.31 5.35 1.49 6.71 3.65h.15c.71-1.63 2.32-3.21 5.83-4.54.15.24.5.66.78.9-3.02 1.07-4.54 2.29-5.27 3.53l5.34-.39.08 1.04-5.88.43c-.16.5-.2 1.01-.19 1.5l4.36-.32.07.98-4.4.32.1 1.4 4.65-.34.07.99-4.65.34.09 1.31-1.16.08-.09-1.31-4.87.36.13 1.81 10.87-.79-.15-1.97 1.14-.08.22 3.03-6 .44.11 1.53-1.16.08-.11-1.53-6.01.44-.22-3.03 1.17-.08-.06-.84 4.87-.35-.1-1.4-4.65.34-.07-.98 4.68-.34c0-.5.05-1 .15-1.5l-6.67.49-.08-1.04 5.7-.41ZM218.14 494.35c-.07.39-.15.82-.2 1.27l6.33.17-.03 1.08-6.44-.17c-.06.54-.11 1.05-.14 1.49l-1.35-.13c.06-.46.14-.93.21-1.39l-6.15-.17.03-1.08 6.32.17c.07-.46.17-.88.24-1.27l-4.73-.13.19-7.32 8.35.22-.2 7.33-2.42-.07Zm-7.58-9.96 12.04.33.02-.83 1.15.03-.28 10.15-1.15-.03.22-8.24-12.04-.33.04-1.07Zm2.84 8.94 6.06.17.03-1.26-6.05-.17-.04 1.26Zm.06-2.11 6.06.17.04-1.27-6.06-.17-.04 1.27Zm.06-2.13 6.06.17.04-1.32-6.06-.17-.04 1.32ZM175.73 491.08l.22-1.27c1.71.1 4.73.63 6.42 1.12l-.22 1.25c-1.65-.58-4.82-1.06-6.42-1.1Zm7.4-6.76c.13-.72-.27-1.49-2.39-1.86-1.4-.25-2.63-.33-3.94-.28l.2-1.31c1.01-.02 2.35.07 3.96.35 2.62.46 3.64 1.54 3.38 3.01-.09.53-.28 1.06-.59 1.8l-1.11-.31c.26-.55.41-.97.49-1.39Zm2.26 8.58c.55-1.38 1.52-4.09 1.82-5.84.13-.77.2-1.43.24-2.21-.39.65-.93 1.52-1.3 2.12l-.57-.61c.6-1.04 1.45-2.59 1.71-3.3.09-.23.19-.51.2-.69.02-.17.04-.4.05-.56l1.15.12c.12 1.16.06 3.01-.3 5.12-.39 2.29-1.38 4.87-1.79 6.13-.13.35-.25.75-.3 1.09l-1.38-.37c.13-.25.36-.72.47-1ZM161.7 479.56l-1.25.56c-.83-1.2-1.78-2.98-2.38-4.36l1.3-.56c.61 1.48 1.52 3.16 2.33 4.36ZM127.56 476.38l.39-1.01 13.08 5.09-.39 1-3.61-1.4c.04.68.3 1.7.58 2.48h-1.16c-.33-.85-.61-1.96-.67-2.65h.83l-4.4-1.71c-.78.51-1.71 1.27-2.32 1.85l-1-.83c.66-.53 1.43-1.06 2.09-1.5l-3.44-1.33Zm2.84-1.23-1.08-.41 3.01-7.75c.26-.67.52-.91 1.04-.91.54 0 1.29.26 2.4.72-.06.31-.06.84 0 1.2-.89-.39-1.69-.69-1.91-.76-.26-.08-.36-.06-.44.17l-3.01 7.75Zm4.45-5.67 1.02.39-2.33 6-1.02-.4 2.33-5.99Zm3.36-.34c.22-.57.46-.79.93-.82.49-.02 1.12.23 2.12.62-.05.3-.06.77-.02 1.09-.72-.31-1.38-.57-1.59-.63-.23-.07-.31-.04-.39.16l-.76 1.96 3.26 1.27 1.23-3.17 1.05.41-3.4 8.76-5.37-2.09 2.94-7.56Zm1.75 8.3.56-1.44-3.25-1.27-.57 1.44 3.26 1.27Zm-1.8-5.04-.57 1.48 3.25 1.27.58-1.48-3.26-1.27ZM100.84 451.17c.38-.68.72-.94 1.3-.83.59.12 1.43.58 2.67 1.27-.11.32-.21.89-.22 1.25-.96-.6-1.91-1.13-2.21-1.27-.26-.13-.38-.1-.52.16l-4.41 7.84 8.99 5.06 5.18-9.2 1 .57-5.73 10.18-3.76-2.11c-.76.55-1.65 1.3-2.22 1.9l-1.13-.93c.71-.56 1.5-1.14 2.22-1.6l-6.13-3.45 4.97-8.83Zm6.44 5.58.55-.97.94.52-3.1 5.5-5.34-3 2.55-4.53 4.4 2.48Zm-2.03 3.6 1.5-2.68-3.45-1.94-1.51 2.69 3.46 1.93ZM70.5 445.22l-1.18-.66c.3-.52.58-1.12.82-1.73-.99-.55-2.03-1.03-3.03-1.37l.54-1.01c.87.33 1.92.82 2.89 1.36.15-.39.26-.75.37-1.08.09-.3.19-.64.28-.97-1.16-.66-2.21-1.09-2.95-1.35l.55-1.06c.74.29 1.67.72 2.65 1.26.14-.73.26-1.49.28-2.22 0-.31-.02-.59-.06-.9l1.1-.38c.57.72 1.68 1.72 2.48 2.48l-.67.7c-.61-.58-1.38-1.27-1.75-1.63-.05.86-.18 1.73-.37 2.56 1.66 1.01 3.77 2.54 5.63 4.13l-.66.98c-1.76-1.62-3.7-3.04-5.23-3.99-.08.29-.16.58-.24.84-.14.45-.28.86-.39 1.24 1.29.84 2.83 2.03 4.32 3.35l-.62.96c-1.4-1.31-2.82-2.42-4.1-3.27-.04.14-.09.27-.15.39-.18.46-.35.94-.49 1.38Zm8.7-6c.78-1.05.22-2.26-1.78-3.75-1.18-.88-2.17-1.49-3.23-1.99l.79-.97c1 .52 2.06 1.19 3.14 2 2.5 1.85 3.36 3.62 2.15 5.24-.52.72-1.15 1.08-1.84 1.43l-.84-.94c.63-.22 1.18-.48 1.6-1.03ZM39.44 416.43l.88-.93c1.38 1.03 3.62 3.14 4.77 4.47l-.87.92c-1.06-1.39-3.46-3.55-4.78-4.46Zm9.93-1.51c.5-.52.61-1.39-.98-2.87-1.04-.98-2.02-1.72-3.15-2.4l.89-.99c.86.55 1.93 1.37 3.13 2.48 1.95 1.83 2.21 3.29 1.19 4.36-.38.39-.83.72-1.49 1.16l-.76-.86c.52-.31.88-.58 1.17-.89Zm-2.83 8.37c1.22-.84 3.53-2.56 4.75-3.84.53-.57.95-1.08 1.42-1.71-.69.33-1.62.75-2.26 1.04l-.14-.82c1.07-.53 2.65-1.36 3.26-1.8.19-.14.44-.32.55-.46.1-.14.25-.31.34-.44l.89.73c-.54 1.03-1.6 2.53-3.06 4.08-1.6 1.69-3.84 3.28-4.89 4.11-.29.22-.61.48-.85.73l-.94-1.06c.24-.14.7-.4.94-.57Z" style="fill:#231815"/><path d="M368.9 168.93h-27.12c-11.25-27.2-28.14-44.56-46.93-44.56s-35.69 17.36-46.95 44.56h-.22c-12.36-19.82-18.9-38.15-19.86-52.24-2.98-43.94 21.03-84.38 59.75-100.63 4.86-2.04 11.12-3.78 18.09-5.03l1.79-.31c.88-.14 1.47-.98 1.33-1.86-.15-.88-.96-1.49-1.86-1.33l-1.83.31c-7.21 1.29-13.69 3.1-18.77 5.23-39.99 16.78-64.8 58.51-61.72 103.82 1.07 15.78 7.99 33.73 19.26 52.03h-23.08c-.89 0-1.62.72-1.62 1.62s.72 1.62 1.62 1.62h25.14c.16.25.32.51.48.76-7.85 20.59-12.62 46.18-12.75 73.99v2.32c0 .89.72 1.62 1.61 1.62s1.62-.72 1.62-1.62v-2.31c.12-26.5 4.46-50.93 11.61-70.75 17.87 26.43 44.52 53.05 75.87 74.4a1.609 1.609 0 0 0 2.24-.43c.5-.74.31-1.74-.43-2.24-34.86-23.74-60.07-50.69-76.28-75.57.02-.05.04-.11.06-.16h89.77c8.04 20.47 12.94 46.46 13.06 74.75v2.32c0 .89.72 1.62 1.61 1.62s1.62-.72 1.62-1.62v-2.32c-.13-28.15-5.01-54.03-13.03-74.74h25.9c.89 0 1.62-.72 1.62-1.62s-.72-1.62-1.62-1.62Zm-74.05-41.33c17.31 0 32.89 16.07 43.53 41.33h-87.09c10.65-25.26 26.24-41.33 43.55-41.33Z" style="fill:#ddaa90"/></svg>